<svg viewBox="0 0 1024 1024" xmlns="http://www.w3.org/2000/svg"><path d="M896 168h-40V64c0-13.255-10.745-24-24-24s-24 10.745-24 24v104H216V64c0-13.255-10.745-24-24-24s-24 10.745-24 24v104h-40c-48.58.05-87.95 39.42-88 87.995v639.94c.062 48.577 39.424 87.94 87.994 88H896c48.572-.072 87.927-39.427 88-87.992V256c-.062-48.576-39.424-87.938-87.994-88H896zM488 408v144H280V408zm256 0v144H536V408zm192 0v144H792V408zM232 552H88V408h144zM88 600h144v144H88zm192 0h208v144H280zm208 192v143.936H280V792zm48 0h208v143.936H536zm0-48V600h208v144zm256-144h144v144H792zM128 216h768c22.083.02 39.98 17.917 40 39.998V360H88V256c.02-22.083 17.917-39.98 39.998-40H128zM88 895.936V792h144v143.936H128c-22.083-.02-39.98-17.917-40-39.998v-.002zm808 40H792V792h144v103.936c-.02 22.083-17.917 39.98-39.998 40H896z"/></svg>